<svg id="visual" viewBox="0 0 960 540" width="960" height="540" xmlns="http://www.w3.org/2000/svg" xmlns:xlink="http://www.w3.org/1999/xlink" version="1.1"><rect x="0" y="0" width="960" height="540" fill="#FAF9F6"></rect><path d="M0 349L32 344C64 339 128 329 192 307.2C256 285.3 320 251.7 384 254.7C448 257.7 512 297.3 576 308.8C640 320.3 704 303.7 768 306C832 308.3 896 329.7 928 340.3L960 351L960 0L928 0C896 0 832 0 768 0C704 0 640 0 576 0C512 0 448 0 384 0C320 0 256 0 192 0C128 0 64 0 32 0L0 0Z" fill="#E8F4FF" stroke-linecap="round" stroke-linejoin="miter"></path></svg>